# xmcd CD database file
#
# Track frame offsets:
#	150
#	74675
#	163453
#	234747
#
# Disc length: 4374 seconds
#
# Revision: 0
# Processed by: cddbd v1.5.2PL0 Copyright (c) Steve Scherf et al.
# Submitted via: CDex 1.70beta2
#
DISCID=3b111404
DTITLE=ASSOCIAZIONE BACK SCHOOL - Rilassamento CD1
DYEAR=2005
DGENRE=New Age
TTITLE0=La percezione dei contatti
TTITLE1=La calma dopo la tensione
TTITLE2=La percezione del respiro
TTITLE3=La decontrazione muscolare
EXTD=YEAR: 2005
EXTT0=
EXTT1=
EXTT2=
EXTT3=
PLAYORDER=
